<svg width="32" height="32" viewBox="0 0 32 32" fill="none" xmlns="http://www.w3.org/2000/svg">
<path d="M18.9002 2.15C18.9002 1.85 18.6502 1.65 18.4002 1.65H15.4502C15.0502 0.65 14.1002 0 13.0002 0C11.5002 0 10.3502 1.2 10.3502 2.65H18.4502C18.7002 2.65 18.9002 2.45 18.9002 2.15ZM15.0502 5.15V3.65H10.8502V4.75C10.8502 5.85 11.7502 6.75 12.8502 6.75H13.4502C14.3502 6.75 15.0502 6.05 15.0502 5.15ZM23.4502 10.65C23.5502 10.65 23.7002 10.7 23.8002 10.75L24.4502 11.3V9.5H22.5002V11.3L23.1502 10.75C23.2002 10.7 23.3002 10.65 23.4502 10.65ZM12.1502 7.7L12.1002 8.5H13.3002L13.4002 7.8H12.8002C12.6002 7.8 12.4002 7.75 12.1502 7.7ZM21.2502 28.05C21.2502 28.05 21.2002 28.05 21.1502 28.05H21.1002L19.6002 28.2C19.5002 28.2 19.4002 28.2 19.3002 28.2C19.1002 28.15 18.9002 28.1 18.7502 27.95C18.5002 27.75 18.3502 27.45 18.3002 27.15L18.0502 24.4C18.0002 24.1 17.9502 23.85 17.8502 23.55C17.8002 23.45 17.7502 23.35 17.7002 23.25L15.6002 20L14.7502 18.65H11.9002C11.6002 18.65 11.4002 18.4 11.4002 18.15C11.4002 17.85 11.6502 17.65 11.9002 17.65H14.5502V14.65H13.9502C13.7502 14.65 13.5502 14.5 13.5002 14.35C13.4502 14.3 13.4502 14.2 13.4502 14.15C13.4502 13.85 13.7002 13.65 13.9502 13.65H15.0502C15.1002 13.65 15.2002 13.65 15.2502 13.7L15.3002 13.75C15.3502 13.75 15.3502 13.8 15.4002 13.8L16.9002 15.25C17.1502 15.5 17.5002 15.65 17.8502 15.65H21.2502C21.4002 15.65 21.5002 15.6 21.6002 15.5C21.6502 15.5 21.6502 15.45 21.6502 15.4C21.7002 15.3 21.7502 15.2 21.7502 15.1C21.7502 14.95 21.7002 14.85 21.6002 14.75C21.5002 14.65 21.4002 14.6 21.2502 14.6H18.6002C17.9002 14.6 17.2002 14.3 16.7002 13.85L16.6502 13.8C16.6002 13.75 16.6002 13.75 16.5502 13.7C16.5002 13.65 16.4502 13.6 16.4002 13.55L16.3502 13.5C16.3002 13.4 16.2502 13.35 16.2002 13.25L16.0502 12.95L14.5002 10C14.5002 10 14.5002 9.95 14.4502 9.95C14.4002 9.9 14.3502 9.85 14.3002 9.8C14.2502 9.75 14.2502 9.75 14.2002 9.7C14.1502 9.7 14.1502 9.65 14.1002 9.65C14.0502 9.6 14.0002 9.6 13.9502 9.6C13.9002 9.6 13.9002 9.55 13.8502 9.55C13.8002 9.55 13.7502 9.5 13.7002 9.5C13.6502 9.5 13.6002 9.5 13.5502 9.5H13.5002H12.1002C11.9502 9.5 11.8502 9.55 11.7002 9.55C11.6002 9.6 11.5002 9.65 11.4502 9.7C11.4502 9.7 11.4502 9.7 11.4002 9.75C11.3002 9.8 11.2502 9.85 11.2002 9.95C11.1502 10 11.1002 10.1 11.0502 10.15C11.0502 10.2 11.0002 10.2 11.0002 10.25C10.9502 10.3 10.9502 10.4 10.9502 10.45V10.5L9.9502 19.6L9.5002 23.85C9.5002 24.05 9.4502 24.2 9.4002 24.4C9.2002 25.15 8.8502 25.85 8.3002 26.45L7.0502 27.7C7.0002 27.75 6.9502 27.85 6.9502 27.95C6.9502 28.05 7.0002 28.2 7.0502 28.3L9.6502 30.9C9.7502 31 9.9502 31.05 10.1002 31C10.1502 31 10.2002 30.95 10.2502 30.9C10.3002 30.85 10.3002 30.8 10.3502 30.75C10.4002 30.65 10.4002 30.55 10.3502 30.45C10.3502 30.4 10.3002 30.35 10.3002 30.3L9.8002 29.6L9.7002 29.5C9.3502 29 9.3502 28.4 9.6502 27.85C9.6502 27.85 9.6502 27.8 9.7002 27.8L10.6502 26.45C10.7002 26.4 10.7002 26.35 10.7502 26.3C10.8002 26.25 10.8002 26.2 10.8502 26.15C10.9002 26.05 10.9502 26 10.9502 25.9C10.9502 25.85 11.0002 25.85 11.0002 25.8C11.1002 25.6 11.1502 25.35 11.2002 25.1L12.0002 20.65C12.0002 20.55 12.1002 20.45 12.2002 20.35C12.2502 20.3 12.3502 20.25 12.4002 20.25C12.4502 20.25 12.4502 20.25 12.5002 20.25H12.5502C12.6002 20.25 12.7002 20.3 12.7502 20.3C12.8002 20.35 12.9002 20.4 12.9502 20.45L13.3002 20.95L16.1502 25.15C16.4502 25.6 16.6502 26.1 16.7002 26.65C16.7002 26.7 16.7002 26.75 16.7002 26.8L17.0002 29.6C17.0002 29.65 17.0002 29.65 17.0502 29.65C17.0502 29.65 17.0502 29.65 17.0502 29.7L17.1002 29.75C17.1502 29.75 17.2002 29.8 17.2502 29.75L18.4502 29.3L21.2502 28.25C21.3002 28.25 21.3002 28.2 21.3502 28.2C21.3502 28.15 21.4002 28.15 21.4002 28.1C21.4002 28 21.3502 28 21.3502 27.95C21.3002 28.05 21.3002 28.05 21.2502 28.05Z" fill="#EC524A"/>
<path d="M27.5998 9.5H25.4498V12.4C25.4498 12.6 25.3498 12.8 25.1498 12.85C25.0998 12.9 24.9998 12.9 24.9498 12.9C24.8498 12.9 24.6998 12.85 24.5998 12.8L23.4498 11.85L22.2998 12.8C22.1498 12.95 21.9498 12.95 21.7498 12.85C21.5498 12.75 21.4498 12.6 21.4498 12.4V9.5H19.2998C18.7498 9.5 18.2998 9.95 18.2998 10.5V13.5C18.3998 13.55 18.5498 13.55 18.6498 13.55H21.2998C21.6998 13.55 22.0998 13.7 22.3998 14C22.6998 14.3 22.8498 14.65 22.8498 15.1C22.8498 15.5 22.6998 15.9 22.3998 16.2C22.3498 16.25 22.2498 16.3 22.1998 16.35C22.1998 16.35 22.1998 16.35 22.1498 16.4C22.0998 16.45 22.0498 16.45 21.9998 16.5C21.9498 16.5 21.9498 16.55 21.8998 16.55C21.8498 16.55 21.8498 16.55 21.7998 16.6C21.6498 16.65 21.4998 16.7 21.2998 16.7H18.3998V17.5C18.5498 17.9 18.8998 18.1 19.3498 18.1H27.6498C28.1998 18.1 28.6498 17.65 28.6498 17.1V10.5C28.5998 9.95 28.1498 9.5 27.5998 9.5ZM29.9498 31H2.0498C1.7498 31 1.5498 31.25 1.5498 31.5C1.5498 31.75 1.7998 32 2.0498 32H29.9998C30.2998 32 30.4998 31.75 30.4998 31.5C30.4998 31.25 30.2498 31 29.9498 31Z" fill="#EC524A"/>
</svg>
