<svg width="17" height="16" viewBox="0 0 17 16" fill="none" xmlns="http://www.w3.org/2000/svg">
<path d="M4.00171 12H5.33504V13.3333H13.335V2.66667H5.33504V4H4.00171V2C4.00171 1.81333 4.06615 1.65556 4.19504 1.52667C4.32393 1.39778 4.48171 1.33333 4.66838 1.33333H14.0017C14.1884 1.33333 14.3462 1.39778 14.475 1.52667C14.6039 1.65556 14.6684 1.81333 14.6684 2V14C14.6684 14.1867 14.6039 14.3444 14.475 14.4733C14.3462 14.6022 14.1884 14.6667 14.0017 14.6667H4.66838C4.48171 14.6667 4.32393 14.6022 4.19504 14.4733C4.06615 14.3444 4.00171 14.1867 4.00171 14V12ZM5.33504 7.33333H10.0017V8.66667H5.33504V10.6667L2.00171 8L5.33504 5.33333V7.33333Z" fill="#F1F1F1"/>
</svg>
