<svg width="151" height="32" viewBox="0 0 151 32" fill="none" xmlns="http://www.w3.org/2000/svg">
<rect width="151" height="32" rx="16" fill="#3ABC4F"/>
<path d="M18.0116 25V9.34869H12.6091V6.46207H26.9892V9.34869H21.5868V25H18.0116ZM37.4083 25.3178C35.5899 25.3178 33.9832 24.9117 32.5885 24.0996C31.1937 23.2874 30.0991 22.1663 29.3046 20.7363C28.5101 19.2886 28.1129 17.6201 28.1129 15.731C28.1129 13.8419 28.5101 12.1823 29.3046 10.7523C30.0991 9.30455 31.1937 8.17462 32.5885 7.36248C33.9832 6.55035 35.5899 6.14428 37.4083 6.14428C39.2621 6.14428 40.8864 6.55035 42.2812 7.36248C43.6936 8.17462 44.7882 9.30455 45.565 10.7523C46.3419 12.1823 46.7303 13.8419 46.7303 15.731C46.7303 17.6201 46.3419 19.2886 45.565 20.7363C44.7882 22.1663 43.6936 23.2874 42.2812 24.0996C40.8864 24.9117 39.2621 25.3178 37.4083 25.3178ZM37.4348 22.1134C38.5824 22.1134 39.5799 21.8574 40.4274 21.3454C41.2748 20.8157 41.9281 20.0742 42.3871 19.1208C42.8461 18.1674 43.0757 17.0375 43.0757 15.731C43.0757 14.4069 42.8461 13.277 42.3871 12.3412C41.9281 11.3879 41.2748 10.6552 40.4274 10.1432C39.5799 9.63117 38.5824 9.37517 37.4348 9.37517C36.2872 9.37517 35.2897 9.63117 34.4423 10.1432C33.5948 10.6552 32.9328 11.3879 32.4561 12.3412C31.997 13.277 31.7675 14.4069 31.7675 15.731C31.7675 17.0375 31.997 18.1674 32.4561 19.1208C32.9328 20.0742 33.5948 20.8157 34.4423 21.3454C35.2897 21.8574 36.2872 22.1134 37.4348 22.1134ZM49.5656 25V6.46207H53.1408V13.7978L59.8409 6.46207H64.237L57.2456 13.9832L64.4489 25H60.0792L54.5973 16.5785L53.1408 18.141V25H49.5656ZM66.6087 25V6.46207H78.7908V9.34869H70.1839V14.195H77.9963V16.9757H70.1839V22.1134H78.7908V25H66.6087ZM81.7897 25V6.46207H85.4973L93.8659 19.3857H93.8923V6.46207H97.4675V25H93.7599L85.3649 12.1029V25H81.7897ZM100.824 25V6.46207H113.006V9.34869H104.399V14.195H112.212V16.9757H104.399V22.1134H113.006V25H100.824ZM116.005 25V6.46207H128.055V9.34869H119.58V14.301H126.386V17.1081H119.58V25H116.005ZM135.387 25V18.5117L129.137 6.46207H133.189L137.585 15.7575H136.817L141.186 6.46207H145.212L138.962 18.5117V25H135.387Z" fill="white"/>
<rect width="4.78161" height="1.10345" transform="translate(16.7815 9.1954)" fill="#3ABC4F"/>
<rect width="5.14943" height="1.21011" transform="translate(39.9541 19.4943)" fill="#3ABC4F"/>
<rect width="3.67816" height="1.10345" transform="translate(63.8621 9.1954)" fill="#3ABC4F"/>
<rect width="4.04598" height="1.47126" transform="translate(77.8391 11.4023)" fill="#3ABC4F"/>
<rect width="4.04598" height="1.10345" transform="translate(89.9771 18.7586)" fill="#3ABC4F"/>
<rect width="4.04598" height="1.10345" transform="translate(95.8621 9.56322)" fill="#3ABC4F"/>
<rect width="4.04598" height="1.10345" transform="translate(110.207 9.56322)" fill="#3ABC4F"/>
<rect width="4.3919" height="1.10345" transform="translate(127.862 17.3337) rotate(-58)" fill="#3ABC4F"/>
<rect width="4.41379" height="1.10345" transform="translate(133.379 8.82759)" fill="#3ABC4F"/>
<rect width="4.04598" height="1.10345" transform="translate(95.8621 20.9655)" fill="#3ABC4F"/>
<rect width="3.67816" height="1.10345" transform="translate(63.8621 20.9655)" fill="#3ABC4F"/>
<rect width="7.27364" height="1.20948" transform="translate(46.7339 17.1923) rotate(-49)" fill="#3ABC4F"/>
<rect width="5.14943" height="1.47126" transform="translate(27.0806 11.0345)" fill="#3ABC4F"/>
</svg>
