<svg width="19" height="18" viewBox="0 0 19 18" fill="none" xmlns="http://www.w3.org/2000/svg">
<path d="M4.48001 3.33C5.15001 2.75 5.90001 2.3 6.73001 1.98C7.58001 1.66 8.46501 1.5 9.38501 1.5C10.405 1.5 11.38 1.695 12.31 2.085C13.2 2.465 13.9925 3.0025 14.6875 3.6975C15.3825 4.3925 15.92 5.185 16.3 6.075C16.69 7.005 16.885 7.98 16.885 9C16.885 9.79 16.765 10.555 16.525 11.295C16.295 12.015 15.96 12.685 15.52 13.305L13.135 9H15.385C15.385 7.91 15.11 6.9 14.56 5.97C14.03 5.07 13.315 4.355 12.415 3.825C11.485 3.275 10.475 3 9.38501 3C8.59501 3 7.83501 3.15 7.10501 3.45C6.40501 3.74 5.78001 4.145 5.23001 4.665L4.48001 3.33ZM14.29 14.67C13.62 15.25 12.87 15.7 12.04 16.02C11.19 16.34 10.305 16.5 9.38501 16.5C8.36501 16.5 7.39001 16.305 6.46001 15.915C5.57001 15.535 4.77751 14.9975 4.08251 14.3025C3.38751 13.6075 2.85001 12.815 2.47001 11.925C2.08001 10.995 1.88501 10.02 1.88501 9C1.88501 8.21 2.00501 7.445 2.24501 6.705C2.47501 5.985 2.81001 5.315 3.25001 4.695L5.63501 9H3.38501C3.38501 10.09 3.66001 11.1 4.21001 12.03C4.74001 12.93 5.45501 13.645 6.35501 14.175C7.28501 14.725 8.29501 15 9.38501 15C10.175 15 10.935 14.85 11.665 14.55C12.365 14.26 12.99 13.855 13.54 13.335L14.29 14.67Z" fill="#121212"/>
</svg>
