<svg width="19" height="18" viewBox="0 0 19 18" fill="none" xmlns="http://www.w3.org/2000/svg">
<path d="M2.89003 12.7499C2.57003 12.1999 2.32503 11.6199 2.15503 11.0099C2.52503 10.8199 2.82253 10.5449 3.04753 10.1849C3.27253 9.82495 3.38503 9.42995 3.38503 8.99995C3.38503 8.56995 3.27253 8.17495 3.04753 7.81495C2.82253 7.45495 2.52503 7.17995 2.15503 6.98995C2.50503 5.73995 3.13003 4.65495 4.03003 3.73495C4.38003 3.96495 4.76753 4.08745 5.19253 4.10245C5.61753 4.11745 6.01503 4.01745 6.38503 3.80245C6.75503 3.58745 7.04003 3.29245 7.24003 2.91745C7.44003 2.54245 7.53003 2.14995 7.51003 1.73995C8.76003 1.40995 10.01 1.40995 11.26 1.73995C11.24 2.14995 11.33 2.54245 11.53 2.91745C11.73 3.29245 12.015 3.58745 12.385 3.80245C12.755 4.01745 13.1525 4.11745 13.5775 4.10245C14.0025 4.08745 14.39 3.96495 14.74 3.73495C15.18 4.19495 15.56 4.69995 15.88 5.24995C16.2 5.79995 16.445 6.37995 16.615 6.98995C16.245 7.17995 15.9475 7.45495 15.7225 7.81495C15.4975 8.17495 15.385 8.56995 15.385 8.99995C15.385 9.42995 15.4975 9.82495 15.7225 10.1849C15.9475 10.5449 16.245 10.8199 16.615 11.0099C16.265 12.2599 15.64 13.3449 14.74 14.2649C14.39 14.0349 14.0025 13.9124 13.5775 13.8974C13.1525 13.8824 12.755 13.9824 12.385 14.1974C12.015 14.4124 11.73 14.7074 11.53 15.0824C11.33 15.4574 11.24 15.8499 11.26 16.2599C10.01 16.5899 8.76003 16.5899 7.51003 16.2599C7.53003 15.8499 7.44003 15.4574 7.24003 15.0824C7.04003 14.7074 6.75503 14.4124 6.38503 14.1974C6.01503 13.9824 5.61753 13.8824 5.19253 13.8974C4.76753 13.9124 4.38003 14.0349 4.03003 14.2649C3.59003 13.8049 3.21003 13.2999 2.89003 12.7499ZM7.13503 12.8999C7.53503 13.1299 7.88003 13.4249 8.17003 13.7849C8.46003 14.1449 8.68003 14.5399 8.83003 14.9699C9.20003 15.0099 9.57003 15.0099 9.94003 14.9699C10.09 14.5399 10.3075 14.1449 10.5925 13.7849C10.8775 13.4249 11.2225 13.1274 11.6275 12.8924C12.0325 12.6574 12.465 12.5049 12.925 12.4349C13.385 12.3649 13.835 12.3799 14.275 12.4799C14.495 12.1699 14.685 11.8449 14.845 11.5049C14.535 11.1649 14.2975 10.7799 14.1325 10.3499C13.9675 9.91995 13.885 9.46995 13.885 8.99995C13.885 8.52995 13.9675 8.07995 14.1325 7.64995C14.2975 7.21995 14.535 6.83495 14.845 6.49495C14.765 6.32495 14.6775 6.15995 14.5825 5.99995C14.4875 5.83995 14.385 5.67995 14.275 5.51995C13.835 5.61995 13.385 5.63495 12.925 5.56495C12.465 5.49495 12.035 5.34245 11.635 5.10745C11.235 4.87245 10.89 4.57495 10.6 4.21495C10.31 3.85495 10.09 3.45995 9.94003 3.02995C9.57003 2.98995 9.20003 2.98995 8.83003 3.02995C8.68003 3.45995 8.46253 3.85495 8.17753 4.21495C7.89253 4.57495 7.54503 4.87245 7.13503 5.10745C6.72503 5.34245 6.29253 5.49495 5.83753 5.56495C5.38253 5.63495 4.93503 5.61995 4.49503 5.51995C4.27503 5.82995 4.08503 6.15495 3.92503 6.49495C4.23503 6.83495 4.47253 7.21995 4.63753 7.64995C4.80253 8.07995 4.88503 8.52995 4.88503 8.99995C4.88503 9.46995 4.80253 9.91995 4.63753 10.3499C4.47253 10.7799 4.23503 11.1649 3.92503 11.5049C4.00503 11.6749 4.09253 11.8399 4.18753 11.9999C4.28253 12.1599 4.38503 12.3199 4.49503 12.4799C4.93503 12.3799 5.38503 12.3649 5.84503 12.4349C6.30503 12.5049 6.73503 12.6599 7.13503 12.8999ZM9.38503 11.2499C8.97503 11.2499 8.59753 11.1499 8.25253 10.9499C7.90753 10.7499 7.63503 10.4774 7.43503 10.1324C7.23503 9.78745 7.13503 9.40995 7.13503 8.99995C7.13503 8.58995 7.23503 8.21245 7.43503 7.86745C7.63503 7.52245 7.90753 7.24995 8.25253 7.04995C8.59753 6.84995 8.97503 6.74995 9.38503 6.74995C9.79503 6.74995 10.1725 6.84995 10.5175 7.04995C10.8625 7.24995 11.135 7.52245 11.335 7.86745C11.535 8.21245 11.635 8.58995 11.635 8.99995C11.635 9.40995 11.535 9.78745 11.335 10.1324C11.135 10.4774 10.8625 10.7499 10.5175 10.9499C10.1725 11.1499 9.79503 11.2499 9.38503 11.2499ZM9.38503 9.74995C9.59503 9.74995 9.77253 9.67745 9.91753 9.53245C10.0625 9.38745 10.135 9.20995 10.135 8.99995C10.135 8.78995 10.0625 8.61245 9.91753 8.46745C9.77253 8.32245 9.59503 8.24995 9.38503 8.24995C9.17503 8.24995 8.99753 8.32245 8.85253 8.46745C8.70753 8.61245 8.63503 8.78995 8.63503 8.99995C8.63503 9.20995 8.70753 9.38745 8.85253 9.53245C8.99753 9.67745 9.17503 9.74995 9.38503 9.74995Z" fill="#121212"/>
</svg>
