<svg width="19" height="18" viewBox="0 0 19 18" fill="none" xmlns="http://www.w3.org/2000/svg">
<path d="M5.33501 7.49996L7.88501 5.41496V12.585L5.33501 10.5H2.63501V7.49996H5.33501ZM1.88501 12H4.79501L8.77001 15.255C8.84001 15.305 8.92251 15.33 9.01751 15.33C9.11251 15.33 9.19751 15.295 9.27251 15.225C9.34751 15.155 9.38501 15.065 9.38501 14.955V3.04496C9.38501 2.95496 9.35501 2.87246 9.29501 2.79746C9.23501 2.72246 9.15251 2.67996 9.04751 2.66996C8.94251 2.65996 8.85001 2.68496 8.77001 2.74496L4.79501 5.99996H1.88501C1.67501 5.99996 1.49751 6.07246 1.35251 6.21746C1.20751 6.36246 1.13501 6.53996 1.13501 6.74996V11.25C1.13501 11.46 1.20751 11.6375 1.35251 11.7825C1.49751 11.9275 1.67501 12 1.88501 12ZM17.635 8.99996C17.635 10.21 17.385 11.36 16.885 12.45C16.395 13.51 15.71 14.425 14.83 15.195L13.765 14.13C14.505 13.5 15.08 12.75 15.49 11.88C15.92 10.97 16.135 10.01 16.135 8.99996C16.135 7.98996 15.92 7.02996 15.49 6.11996C15.08 5.24996 14.505 4.49996 13.765 3.86996L14.83 2.80496C15.71 3.57496 16.395 4.48996 16.885 5.54996C17.385 6.63996 17.635 7.78996 17.635 8.99996ZM13.885 8.99996C13.885 8.29996 13.73 7.63496 13.42 7.00496C13.12 6.39496 12.705 5.87996 12.175 5.45996L11.095 6.53996C11.495 6.80996 11.81 7.16246 12.04 7.59746C12.27 8.03246 12.385 8.49996 12.385 8.99996C12.385 9.49996 12.27 9.96746 12.04 10.4025C11.81 10.8375 11.495 11.19 11.095 11.46L12.175 12.54C12.705 12.12 13.12 11.605 13.42 10.995C13.73 10.365 13.885 9.69996 13.885 8.99996Z" fill="#121212"/>
</svg>
