<svg width="19" height="18" viewBox="0 0 19 18" fill="none" xmlns="http://www.w3.org/2000/svg">
<path d="M11.9437 4.48259H16.1264C16.3363 4.48259 16.5137 4.55505 16.6587 4.69997C16.8036 4.8449 16.876 5.0223 16.876 5.23219V15.7266C16.876 15.9265 16.8036 16.1014 16.6587 16.2513C16.5137 16.4012 16.3363 16.4762 16.1264 16.4762H2.63363C2.42375 16.4762 2.24634 16.4037 2.10142 16.2588C1.95649 16.1139 1.88403 15.9365 1.88403 15.7266V5.23219C1.88403 5.0223 1.95649 4.8449 2.10142 4.69997C2.24634 4.55505 2.42375 4.48259 2.63363 4.48259H6.8164L4.92741 2.5786L5.97685 1.51417L8.94527 4.48259H9.81481L12.7832 1.51417L13.8327 2.5786L11.9437 4.48259ZM3.38323 5.98179V14.977H15.3768V5.98179H3.38323Z" fill="#121212"/>
</svg>
