<svg width="17" height="16" viewBox="0 0 17 16" fill="none" xmlns="http://www.w3.org/2000/svg">
<path d="M3.00171 15C3.00171 14.0311 3.24615 13.1333 3.73504 12.3067C4.20615 11.5067 4.84171 10.8711 5.64171 10.4C6.46838 9.91111 7.36615 9.66667 8.33504 9.66667C9.30393 9.66667 10.2017 9.91111 11.0284 10.4C11.8284 10.8711 12.4639 11.5067 12.935 12.3067C13.4239 13.1333 13.6684 14.0311 13.6684 15H12.335C12.335 14.28 12.1528 13.6089 11.7884 12.9867C11.4328 12.3822 10.9528 11.9022 10.3484 11.5467C9.72615 11.1822 9.05504 11 8.33504 11C7.61504 11 6.94393 11.1822 6.32171 11.5467C5.71726 11.9022 5.23726 12.3822 4.88171 12.9867C4.51726 13.6089 4.33504 14.28 4.33504 15H3.00171ZM8.33504 9C7.60615 9 6.93504 8.81778 6.32171 8.45333C5.71726 8.09778 5.23726 7.61778 4.88171 7.01333C4.51726 6.4 4.33504 5.72889 4.33504 5C4.33504 4.27111 4.51726 3.6 4.88171 2.98667C5.23726 2.38222 5.71726 1.90222 6.32171 1.54667C6.93504 1.18222 7.60615 1 8.33504 1C9.06393 1 9.73504 1.18222 10.3484 1.54667C10.9528 1.90222 11.4328 2.38222 11.7884 2.98667C12.1528 3.6 12.335 4.27111 12.335 5C12.335 5.72889 12.1528 6.4 11.7884 7.01333C11.4328 7.61778 10.9528 8.09778 10.3484 8.45333C9.73504 8.81778 9.06393 9 8.33504 9ZM8.33504 7.66667C8.81504 7.66667 9.25949 7.54667 9.66838 7.30667C10.0773 7.06667 10.4017 6.74222 10.6417 6.33333C10.8817 5.92444 11.0017 5.48 11.0017 5C11.0017 4.52 10.8817 4.07555 10.6417 3.66667C10.4017 3.25778 10.0773 2.93333 9.66838 2.69333C9.25949 2.45333 8.81504 2.33333 8.33504 2.33333C7.85504 2.33333 7.4106 2.45333 7.00171 2.69333C6.59282 2.93333 6.26838 3.25778 6.02838 3.66667C5.78838 4.07555 5.66838 4.52 5.66838 5C5.66838 5.48 5.78838 5.92444 6.02838 6.33333C6.26838 6.74222 6.59282 7.06667 7.00171 7.30667C7.4106 7.54667 7.85504 7.66667 8.33504 7.66667Z" fill="#333333"/>
</svg>
