<svg width="32" height="32" viewBox="0 0 32 32" fill="none" xmlns="http://www.w3.org/2000/svg">
<g clip-path="url(#clip0_198_3649)">
<path d="M15.7594 25.3082C15.7596 23.5942 16.2593 21.9175 17.1975 20.4831C18.1357 19.0487 19.4716 17.9188 21.0419 17.2317C22.6121 16.5447 24.3485 16.3302 26.0388 16.6145C27.729 16.8988 29.2997 17.6696 30.5588 18.8326C30.6004 15.8196 30.5754 12.8067 30.4837 9.7938C30.4338 7.7238 29.2644 5.64568 27.3069 4.6188C26.3006 4.08693 25.2581 3.57505 24.2031 3.09005C20.0375 4.43755 15.1575 6.21193 10.2362 8.41568C9.76308 8.62473 9.35775 8.96186 9.06598 9.38902C8.77421 9.81618 8.60762 10.3164 8.585 10.8332C8.50813 13.2082 8.48438 15.6594 8.51562 18.0832C8.5179 18.1542 8.49739 18.2241 8.45709 18.2827C8.41679 18.3413 8.35881 18.3854 8.29164 18.4086C8.22446 18.4319 8.15161 18.4331 8.08373 18.4119C8.01586 18.3908 7.95651 18.3486 7.91437 18.2913C7.39437 17.6246 6.88562 16.9655 6.38812 16.3138C6.35148 16.263 6.29711 16.2278 6.23577 16.2152C6.17443 16.2026 6.11059 16.2135 6.05688 16.2457C5.67063 16.4757 5.29104 16.7026 4.91813 16.9263C4.70938 17.0513 4.4525 16.8844 4.45125 16.6276C4.43875 14.2132 4.49938 11.7926 4.62813 9.4463C4.6825 8.45693 5.30375 7.52505 6.22188 7.0713C10.9419 4.74005 15.9775 2.83568 20.2744 1.4263C19.2713 1.03505 18.28 0.676304 17.3094 0.336304C16.0004 -0.113078 14.579 -0.113078 13.27 0.336304C10.0319 1.4538 6.49438 2.91255 3.2725 4.6188C1.3125 5.64568 0.145625 7.7238 0.095625 9.7938C-0.031875 13.9313 -0.031875 18.0688 0.095625 22.2063C0.145625 24.2763 1.315 26.3544 3.2725 27.3813C6.49438 29.0876 10.0319 30.5463 13.2725 31.6632C14.5815 32.1126 16.0029 32.1126 17.3119 31.6632C17.5952 31.5657 17.8808 31.4651 18.1688 31.3613C16.6164 29.729 15.7534 27.5608 15.7594 25.3082Z" fill="#404040"/>
<path d="M24.5765 18.613C23.2522 18.613 21.9576 19.0057 20.8565 19.7415C19.7554 20.4772 18.8972 21.523 18.3905 22.7465C17.8837 23.97 17.7512 25.3163 18.0096 26.6151C18.268 27.914 18.9057 29.107 19.8422 30.0434C20.7786 30.9798 21.9718 31.6174 23.2706 31.8757C24.5695 32.134 25.9158 32.0013 27.1392 31.4944C28.3627 30.9876 29.4083 30.1293 30.144 29.0281C30.8797 27.9269 31.2722 26.6323 31.2721 25.308C31.2719 23.5324 30.5664 21.8295 29.3108 20.5739C28.0551 19.3184 26.3522 18.613 24.5765 18.613ZM27.2302 26.288H24.4434C24.3387 26.288 24.2351 26.2674 24.1384 26.2274C24.0417 26.1873 23.9539 26.1286 23.8799 26.0546C23.8059 25.9806 23.7472 25.8928 23.7071 25.7961C23.6671 25.6994 23.6465 25.5958 23.6465 25.4912V21.2099C23.6465 20.9986 23.7304 20.7959 23.8799 20.6464C24.0293 20.497 24.232 20.413 24.4434 20.413C24.6547 20.413 24.8574 20.497 25.0068 20.6464C25.1563 20.7959 25.2402 20.9986 25.2402 21.2099V24.6943H27.2302C27.4416 24.6943 27.6443 24.7782 27.7937 24.9277C27.9432 25.0771 28.0271 25.2798 28.0271 25.4912C28.0271 25.7025 27.9432 25.9052 27.7937 26.0546C27.6443 26.2041 27.4416 26.288 27.2302 26.288Z" fill="#404040"/>
</g>
<defs>
<clipPath id="clip0_198_3649">
<rect width="32" height="32" fill="white"/>
</clipPath>
</defs>
</svg>
